<svg xmlns="http://www.w3.org/2000/svg" width="240" height="48" fill="none" viewBox="0 0 240 48"><g clip-path="url(#a)"><mask id="b" width="48" height="48" x="0" y="0" maskUnits="userSpaceOnUse" style="mask-type:luminance"><path fill="#fff" d="M47.653 0H0v48h47.653V0Z"/></mask><g mask="url(#b)"><path fill="url(#c)" d="M15.838 32.76a6.687 6.687 0 0 0 3.147-5.678c0-3.68-2.973-6.675-6.627-6.675S5.73 23.4 5.73 27.082c0 2.395 1.26 4.5 3.147 5.677C3.74 34.277-.021 39.067-.021 44.726c0 .414.334.75.745.75h23.268a.747.747 0 0 0 .744-.75c0-5.66-3.762-10.449-8.898-11.967ZM7.22 27.081c0-2.854 2.305-5.175 5.138-5.175 2.833 0 5.137 2.321 5.137 5.175 0 2.853-2.303 5.173-5.135 5.175h-.004c-2.832-.002-5.136-2.322-5.136-5.175ZM1.494 43.975c.384-5.698 5.108-10.217 10.861-10.218h.005c5.753.001 10.478 4.52 10.862 10.218H1.494ZM16.398 18.56a.738.738 0 0 0 .83-.251l3.41-4.444h24.388a2.619 2.619 0 0 0 2.606-2.626V5.15a2.619 2.619 0 0 0-2.606-2.625H18.5a2.619 2.619 0 0 0-2.605 2.625v12.7c0 .32.202.605.503.709Zm.986-13.41c0-.62.5-1.124 1.116-1.124h26.526c.616 0 1.117.504 1.117 1.125v6.088c0 .62-.501 1.126-1.117 1.126H20.272a.743.743 0 0 0-.59.29l-2.298 2.998V5.15ZM30.33 8.195c0-.414.333-.75.744-.75h4.73c.41 0 .744.336.744.75s-.333.75-.744.75h-4.73a.747.747 0 0 1-.744-.75Zm-9.782 0c0-.414.334-.75.745-.75h6.556c.41 0 .744.336.744.75s-.333.75-.744.75h-6.556a.747.747 0 0 1-.745-.75Zm17.4 0c0-.414.333-.75.744-.75h3.542c.41 0 .744.336.744.75s-.333.75-.744.75h-3.542a.747.747 0 0 1-.745-.75Zm6.87 9.414h-16.72c-1.574 0-2.855 1.29-2.855 2.877v9.78c0 1.587 1.281 2.877 2.856 2.877h16.719c1.574 0 2.855-1.29 2.855-2.876v-9.781c0-1.587-1.28-2.877-2.855-2.877Zm-5.387 6.676 6.602-4.425c.096.188.15.4.15.625v9.782c0 .121-.016.239-.046.35l-6.706-6.332Zm-12.652 6.333a1.378 1.378 0 0 1-.047-.351v-9.781c0-.226.055-.438.15-.626l6.603 4.425-6.706 6.333Zm1.672-11.509h16.014l-8.007 5.366-8.007-5.366Zm-.352 12.534a1.35 1.35 0 0 1-.21-.018l6.87-6.487 1.287.863a.74.74 0 0 0 .824 0l1.287-.863 6.87 6.487a1.35 1.35 0 0 1-.21.018H28.1Z"/></g></g><path fill="#00F" d="M75.234 24.134h2.522v8.424c-.208.07-.511.147-.91.234-.381.087-.832.173-1.352.26-.503.087-1.057.156-1.664.208-.607.07-1.222.104-1.846.104-1.265 0-2.418-.208-3.458-.624a7.355 7.355 0 0 1-2.678-1.82c-.745-.797-1.326-1.777-1.742-2.938-.399-1.161-.598-2.496-.598-4.004 0-1.508.225-2.843.676-4.004.468-1.179 1.092-2.167 1.872-2.964a7.862 7.862 0 0 1 2.73-1.82 9.148 9.148 0 0 1 3.38-.624 13.252 13.252 0 0 1 3.796.52c.45.139.815.277 1.092.416.295.139.494.243.598.312l-.806 2.106c-.503-.33-1.17-.598-2.002-.806a9.705 9.705 0 0 0-2.548-.338c-.919 0-1.76.165-2.522.494a5.38 5.38 0 0 0-1.924 1.43c-.52.624-.927 1.387-1.222 2.288-.295.884-.442 1.88-.442 2.99 0 1.075.121 2.054.364 2.938.26.884.641 1.647 1.144 2.288a5.408 5.408 0 0 0 1.898 1.456c.763.347 1.655.52 2.678.52.728 0 1.343-.035 1.846-.104.52-.087.893-.165 1.118-.234v-6.708Zm18.249 2.106c0 1.075-.156 2.045-.468 2.912a6.546 6.546 0 0 1-1.326 2.236 5.792 5.792 0 0 1-2.002 1.456c-.78.33-1.63.494-2.548.494a6.484 6.484 0 0 1-2.548-.494 6.06 6.06 0 0 1-2.028-1.456c-.555-.624-.988-1.37-1.3-2.236-.312-.867-.468-1.837-.468-2.912 0-1.057.156-2.02.468-2.886.312-.884.745-1.638 1.3-2.262a5.758 5.758 0 0 1 2.028-1.43 6.2 6.2 0 0 1 2.548-.52 6.2 6.2 0 0 1 2.548.52c.78.33 1.447.806 2.002 1.43.572.624 1.014 1.378 1.326 2.262.312.867.468 1.829.468 2.886Zm-2.522 0c0-1.525-.347-2.73-1.04-3.614-.676-.901-1.604-1.352-2.782-1.352-1.179 0-2.115.45-2.808 1.352-.676.884-1.014 2.089-1.014 3.614s.338 2.739 1.014 3.64c.693.884 1.63 1.326 2.808 1.326s2.106-.442 2.782-1.326c.693-.901 1.04-2.115 1.04-3.64Zm17.858 0c0 1.075-.156 2.045-.468 2.912a6.546 6.546 0 0 1-1.326 2.236 5.795 5.795 0 0 1-2.002 1.456c-.78.33-1.63.494-2.548.494a6.486 6.486 0 0 1-2.548-.494 6.06 6.06 0 0 1-2.028-1.456c-.555-.624-.988-1.37-1.3-2.236-.312-.867-.468-1.837-.468-2.912 0-1.057.156-2.02.468-2.886.312-.884.745-1.638 1.3-2.262a5.758 5.758 0 0 1 2.028-1.43 6.196 6.196 0 0 1 2.548-.52 6.2 6.2 0 0 1 2.548.52c.78.33 1.447.806 2.002 1.43.572.624 1.014 1.378 1.326 2.262.312.867.468 1.829.468 2.886Zm-2.522 0c0-1.525-.347-2.73-1.04-3.614-.676-.901-1.604-1.352-2.782-1.352-1.179 0-2.115.45-2.808 1.352-.676.884-1.014 2.089-1.014 3.614s.338 2.739 1.014 3.64c.693.884 1.629 1.326 2.808 1.326 1.178 0 2.106-.442 2.782-1.326.693-.901 1.04-2.115 1.04-3.64Zm14.4 5.408c-.208.139-.616.32-1.222.546-.59.208-1.283.312-2.08.312-.815 0-1.586-.13-2.314-.39a5.086 5.086 0 0 1-1.872-1.196c-.538-.555-.962-1.24-1.274-2.054-.312-.815-.468-1.785-.468-2.912 0-.988.147-1.89.442-2.704a5.962 5.962 0 0 1 1.274-2.132 5.805 5.805 0 0 1 2.08-1.404c.814-.347 1.733-.52 2.756-.52 1.126 0 2.106.087 2.938.26.849.156 1.56.303 2.132.442V31.96c0 2.08-.538 3.588-1.612 4.524-1.075.936-2.704 1.404-4.888 1.404-.85 0-1.656-.07-2.418-.208a13.787 13.787 0 0 1-1.95-.494l.442-2.106c.485.19 1.074.355 1.768.494.71.156 1.447.234 2.21.234 1.438 0 2.47-.286 3.094-.858.641-.572.962-1.482.962-2.73v-.572Zm-.026-10.036a6.859 6.859 0 0 0-.988-.182c-.399-.07-.945-.104-1.638-.104-1.3 0-2.306.425-3.016 1.274-.694.85-1.04 1.976-1.04 3.38 0 .78.095 1.447.286 2.002.208.555.476 1.014.806 1.378.346.364.736.633 1.17.806.45.173.91.26 1.378.26.641 0 1.23-.087 1.768-.26.537-.19.962-.407 1.274-.65v-7.904Zm10.637 11.648c-1.491-.035-2.548-.355-3.172-.962-.624-.607-.936-1.551-.936-2.834V13.24l2.418-.416v16.25c0 .399.035.728.104.988.069.26.182.468.338.624.156.156.364.277.624.364.26.07.581.13.962.182l-.338 2.028Zm2.299-6.994c0-1.196.174-2.236.52-3.12.347-.901.806-1.647 1.378-2.236a5.599 5.599 0 0 1 1.976-1.326 6.175 6.175 0 0 1 2.288-.442c1.82 0 3.216.572 4.186 1.716.971 1.127 1.456 2.851 1.456 5.174v.416c0 .156-.008.303-.026.442h-9.256c.104 1.404.512 2.47 1.222 3.198.711.728 1.82 1.092 3.328 1.092.85 0 1.56-.07 2.132-.208.59-.156 1.032-.303 1.326-.442l.338 2.028c-.294.156-.814.32-1.56.494-.728.173-1.56.26-2.496.26-1.178 0-2.201-.173-3.068-.52-.849-.364-1.551-.858-2.106-1.482a6.18 6.18 0 0 1-1.248-2.21c-.26-.867-.39-1.811-.39-2.834Zm9.282-1.326c.018-1.092-.26-1.985-.832-2.678-.554-.71-1.326-1.066-2.314-1.066-.554 0-1.048.113-1.482.338a3.35 3.35 0 0 0-1.066.832 4.134 4.134 0 0 0-.702 1.196c-.156.45-.26.91-.312 1.378h6.708Zm23.167-.806h2.522v8.424c-.208.07-.511.147-.91.234-.381.087-.832.173-1.352.26a19.6 19.6 0 0 1-1.664.208c-.606.07-1.222.104-1.846.104-1.265 0-2.418-.208-3.458-.624a7.361 7.361 0 0 1-2.678-1.82c-.745-.797-1.326-1.777-1.742-2.938-.398-1.161-.598-2.496-.598-4.004 0-1.508.226-2.843.676-4.004.468-1.179 1.092-2.167 1.872-2.964a7.862 7.862 0 0 1 2.73-1.82 9.15 9.15 0 0 1 3.38-.624 13.249 13.249 0 0 1 3.796.52 7.28 7.28 0 0 1 1.092.416c.295.139.494.243.598.312l-.806 2.106c-.502-.33-1.17-.598-2.002-.806a9.704 9.704 0 0 0-2.548-.338c-.918 0-1.759.165-2.522.494a5.388 5.388 0 0 0-1.924 1.43c-.52.624-.927 1.387-1.222 2.288-.294.884-.442 1.88-.442 2.99 0 1.075.122 2.054.364 2.938.26.884.642 1.647 1.144 2.288a5.41 5.41 0 0 0 1.898 1.456c.763.347 1.656.52 2.678.52.728 0 1.344-.035 1.846-.104.52-.087.893-.165 1.118-.234v-6.708Zm11.307-4.94c.208 0 .442.017.702.052.277.017.546.052.806.104.26.035.494.078.702.13.225.035.39.07.494.104l-.416 2.106c-.191-.07-.511-.147-.962-.234-.433-.104-.997-.156-1.69-.156-.451 0-.901.052-1.352.156a23.65 23.65 0 0 0-.858.182V33h-2.418V20.052c.572-.208 1.283-.399 2.132-.572.849-.19 1.803-.286 2.86-.286Zm16.971 7.046c0 1.075-.156 2.045-.468 2.912a6.546 6.546 0 0 1-1.326 2.236 5.785 5.785 0 0 1-2.002 1.456 6.47 6.47 0 0 1-2.548.494 6.487 6.487 0 0 1-2.548-.494 6.06 6.06 0 0 1-2.028-1.456c-.554-.624-.988-1.37-1.3-2.236-.312-.867-.468-1.837-.468-2.912 0-1.057.156-2.02.468-2.886.312-.884.746-1.638 1.3-2.262a5.758 5.758 0 0 1 2.028-1.43 6.2 6.2 0 0 1 2.548-.52 6.2 6.2 0 0 1 2.548.52c.78.33 1.448.806 2.002 1.43.572.624 1.014 1.378 1.326 2.262.312.867.468 1.829.468 2.886Zm-2.522 0c0-1.525-.346-2.73-1.04-3.614-.676-.901-1.603-1.352-2.782-1.352-1.178 0-2.114.45-2.808 1.352-.676.884-1.014 2.089-1.014 3.614s.338 2.739 1.014 3.64c.694.884 1.63 1.326 2.808 1.326 1.179 0 2.106-.442 2.782-1.326.694-.901 1.04-2.115 1.04-3.64Zm16.688 6.37c-.554.139-1.291.286-2.21.442-.901.156-1.95.234-3.146.234-1.04 0-1.915-.147-2.626-.442-.71-.312-1.282-.745-1.716-1.3a5.24 5.24 0 0 1-.936-1.95 10.428 10.428 0 0 1-.286-2.522V19.48h2.418v7.072c0 1.647.26 2.825.78 3.536.52.71 1.396 1.066 2.626 1.066.26 0 .529-.009.806-.026.278-.017.538-.035.78-.052.243-.035.46-.06.65-.078a2.37 2.37 0 0 0 .442-.104V19.48h2.418v13.13Zm13.552-6.344c0-1.577-.39-2.79-1.17-3.64-.78-.85-1.82-1.274-3.12-1.274-.728 0-1.3.026-1.716.078a6.864 6.864 0 0 0-.962.182v8.528c.295.243.719.477 1.274.702a4.792 4.792 0 0 0 1.82.338c.693 0 1.283-.121 1.768-.364.503-.26.91-.607 1.222-1.04.312-.45.537-.97.676-1.56a8.718 8.718 0 0 0 .208-1.95Zm2.522 0c0 1.023-.139 1.967-.416 2.834-.26.867-.65 1.612-1.17 2.236a5.345 5.345 0 0 1-1.924 1.456c-.745.347-1.603.52-2.574.52-.78 0-1.473-.104-2.08-.312-.589-.208-1.031-.407-1.326-.598v5.408h-2.418V19.896a39.866 39.866 0 0 1 2.132-.442c.867-.173 1.863-.26 2.99-.26 1.04 0 1.976.165 2.808.494.832.33 1.543.797 2.132 1.404.589.607 1.04 1.352 1.352 2.236.329.867.494 1.846.494 2.938Zm6.548 4.992c.988 0 1.716-.13 2.184-.39.486-.26.728-.676.728-1.248 0-.59-.234-1.057-.702-1.404-.468-.347-1.239-.737-2.314-1.17a68.282 68.282 0 0 1-1.508-.624 5.685 5.685 0 0 1-1.222-.78 3.357 3.357 0 0 1-.832-1.066c-.208-.416-.312-.927-.312-1.534 0-1.196.442-2.14 1.326-2.834.884-.71 2.089-1.066 3.614-1.066.382 0 .763.026 1.144.078a9.23 9.23 0 0 1 1.066.156c.33.052.616.113.858.182.26.07.46.13.598.182l-.442 2.08c-.26-.139-.667-.277-1.222-.416-.554-.156-1.222-.234-2.002-.234-.676 0-1.265.139-1.768.416-.502.26-.754.676-.754 1.248 0 .295.052.555.156.78.122.225.295.433.52.624.243.173.538.338.884.494.347.156.763.32 1.248.494.642.243 1.214.485 1.716.728a4.84 4.84 0 0 1 1.274.806c.364.312.642.693.832 1.144.191.433.286.97.286 1.612 0 1.248-.468 2.193-1.404 2.834-.918.641-2.236.962-3.952.962-1.196 0-2.132-.104-2.808-.312-.676-.19-1.135-.338-1.378-.442l.442-2.08c.278.104.72.26 1.326.468.607.208 1.413.312 2.418.312Z"/><defs><linearGradient id="c" x1="2.342" x2="46.827" y1="47.416" y2="3.253" gradientUnits="userSpaceOnUse"><stop stop-color="#FCC60E"/><stop offset="1" stop-color="#E92E29"/></linearGradient><clipPath id="a"><path fill="#fff" d="M0 0h47.653v48H0z"/></clipPath></defs></svg>