<svg xmlns="http://www.w3.org/2000/svg" width="1344" height="308" fill="none" viewBox="0 0 1344 308"><g filter="url(#a)"><path fill="red" d="M119.323 33.03c-.548.041-2.375.163-4.06.285-19.207 1.42-38.455 7.837-55.165 18.415-11.045 6.984-21.44 16.344-29.846 26.82C16.73 95.444 7.878 116.133 5.035 137.472 4.203 143.826 4 146.77 4 153.917s.203 10.091 1.035 16.446c2.843 21.339 11.695 42.028 25.217 58.92 8.406 10.477 18.801 19.837 29.846 26.821 14.781 9.36 31.37 15.41 48.363 17.684 6.355.833 9.299 1.036 16.446 1.036 7.147 0 10.091-.203 16.446-1.036 16.994-2.274 33.581-8.324 48.362-17.684 11.045-6.984 21.441-16.344 29.846-26.821 13.522-16.892 22.375-37.581 25.217-58.92.833-6.355 1.036-9.299 1.036-16.446 0-7.147-.203-10.091-1.036-16.446-2.842-21.339-11.695-42.028-25.217-58.92-5.705-7.127-12.588-13.969-19.714-19.634-14.72-11.695-32.608-19.958-51.185-23.653-7.614-1.523-13.867-2.152-22.232-2.233-3.351-.041-6.538-.041-7.107 0Zm14.213 39.775c8.994.954 17.278 3.208 25.44 6.944l2.477 1.137v73.234h-15.431V90.428l-2.477-.73c-10.212-3.046-22.313-3.412-33.054-1.016-5.238 1.157-12.364 3.858-17.156 6.497-19.45 10.7-32.12 29.988-34.211 52.038-.305 3.025-.285 9.644 0 12.486 1.32 12.832 6.253 25.035 14.192 35.004l1.644 2.05-.04 10.091-.061 10.07-1.421-1.177c-17.279-14.517-27.532-34.516-29.156-56.951-.264-3.614-.142-10.842.223-13.908 1.604-13.542 5.909-25.481 13.137-36.363 9.319-14.07 23.227-25.136 38.962-31.024 7.39-2.761 14.679-4.365 22.821-4.995 3.066-.223 10.537-.08 14.111.305Zm43.348 18.963c5.278 4.345 11.166 10.883 14.963 16.568 9.583 14.395 14.273 30.536 13.806 47.611-.121 4.609-.284 6.436-.974 10.558-1.929 11.715-6.051 22.253-12.487 31.978-7.776 11.715-18.74 21.4-31.45 27.775-12.202 6.111-26.272 9.055-39.754 8.304-11.37-.65-20.587-2.883-30.13-7.309l-2.497-1.157v-73.194h15.43v63.712l1.381.406c6.517 1.969 12.649 2.863 19.329 2.883 7.492 0 13.664-.954 20.506-3.167 24.283-7.837 41.927-28.851 45.358-54.089 1.563-11.41 0-23.612-4.386-34.211-2.253-5.421-5.928-11.674-9.502-16.121l-1.624-2.01v-10.091c0-9.583.02-10.09.366-9.826.182.162.934.771 1.665 1.38Zm-44.262 61.743v31.47h-15.43v-62.94h15.43v31.47Z"/></g><g filter="url(#b)"><path fill="red" d="M433.52 90.536c2.048 6.997 4.267 14.933 6.656 23.808 2.56 8.704 5.205 17.749 7.936 27.136l8.704 28.16c2.901 9.387 5.717 18.091 8.448 26.112 2.219-8.704 4.437-18.176 6.656-28.416a739.888 739.888 0 0 0 6.656-31.744 2640.942 2640.942 0 0 0 5.888-32.512 1838.7 1838.7 0 0 0 5.632-31.488h41.472c-5.973 29.696-12.885 59.819-20.736 90.368-7.68 30.549-16.043 59.563-25.088 87.04h-36.608c-5.973-16.384-11.776-33.536-17.408-51.456a6570.004 6570.004 0 0 1-16.64-54.272l-16.384 54.272c-5.461 17.92-11.179 35.072-17.152 51.456h-36.608c-9.045-27.477-17.493-56.491-25.344-87.04-7.68-30.549-14.507-60.672-20.48-90.368h43.264a1838.7 1838.7 0 0 0 5.632 31.488 2716.034 2716.034 0 0 0 6.4 32.512 2501.262 2501.262 0 0 0 6.656 31.744c2.389 10.24 4.779 19.712 7.168 28.416 3.072-8.363 6.059-17.237 8.96-26.624a1769.464 1769.464 0 0 0 8.448-28.16 840.92 840.92 0 0 0 7.424-27.136c2.389-8.704 4.523-16.47 6.4-23.296h34.048ZM665.764 249a354.488 354.488 0 0 0-6.4-18.944l-6.656-19.456h-69.12a887.115 887.115 0 0 1-6.912 19.456A600.507 600.507 0 0 0 570.532 249H529.06c6.656-19.115 12.971-36.779 18.944-52.992 5.973-16.213 11.776-31.488 17.408-45.824a2369.943 2369.943 0 0 1 16.896-40.704 974.197 974.197 0 0 1 17.408-37.888h38.144a1318.313 1318.313 0 0 1 17.152 37.888c5.632 12.8 11.264 26.368 16.896 40.704 5.803 14.336 11.691 29.611 17.664 45.824 5.973 16.213 12.288 33.877 18.944 52.992h-42.752Zm-47.872-137.216c-.853 2.56-2.133 6.059-3.84 10.496a8266.95 8266.95 0 0 0-5.888 15.36 3002.886 3002.886 0 0 1-7.424 19.2 2579.376 2579.376 0 0 0-7.936 22.016h50.432a2579.376 2579.376 0 0 0-7.936-22.016c-2.56-6.997-5.035-13.397-7.424-19.2a8266.95 8266.95 0 0 0-5.888-15.36 901.64 901.64 0 0 0-4.096-10.496Zm187.984 140.8c-28.843 0-50.859-8.021-66.048-24.064-15.019-16.043-22.528-38.827-22.528-68.352 0-14.677 2.304-27.733 6.912-39.168 4.608-11.605 10.923-21.333 18.944-29.184 8.021-8.021 17.579-14.08 28.672-18.176 11.093-4.096 23.125-6.144 36.096-6.144 7.509 0 14.336.597 20.48 1.792 6.144 1.024 11.52 2.304 16.128 3.84 4.608 1.365 8.448 2.816 11.52 4.352 3.072 1.536 5.291 2.73 6.656 3.584l-11.52 32.256c-5.461-2.901-11.861-5.376-19.2-7.424-7.168-2.048-15.36-3.072-24.576-3.072-6.144 0-12.203 1.024-18.176 3.072-5.803 2.048-11.008 5.376-15.616 9.984-4.437 4.437-8.021 10.24-10.752 17.408-2.731 7.168-4.096 15.872-4.096 26.112 0 8.192.853 15.872 2.56 23.04 1.877 6.997 4.779 13.056 8.704 18.176 4.096 5.12 9.387 9.216 15.872 12.288 6.485 2.901 14.336 4.352 23.552 4.352 5.803 0 11.008-.341 15.616-1.024 4.608-.683 8.704-1.451 12.288-2.304 3.584-1.024 6.741-2.133 9.472-3.328a412.196 412.196 0 0 0 7.424-3.328l11.008 32c-5.632 3.413-13.568 6.485-23.808 9.216-10.24 2.731-22.101 4.096-35.584 4.096Zm125.92-23.808c0 7.68-2.475 13.568-7.424 17.664-4.779 3.925-10.24 5.888-16.384 5.888s-11.691-1.963-16.64-5.888c-4.779-4.096-7.168-9.984-7.168-17.664 0-7.68 2.389-13.483 7.168-17.408 4.949-4.096 10.496-6.144 16.64-6.144s11.605 2.048 16.384 6.144c4.949 3.925 7.424 9.728 7.424 17.408ZM1070.81 71.592v34.048h-53.5V249h-39.936V105.64H923.87V71.592h146.94Zm55.32 150.784c3.75 0 7.33-.085 10.75-.256 3.41-.171 6.14-.427 8.19-.768v-28.928c-1.54-.341-3.84-.683-6.91-1.024-3.07-.341-5.89-.512-8.45-.512-3.58 0-7 .256-10.24.768-3.07.341-5.8 1.109-8.19 2.304-2.39 1.195-4.27 2.816-5.63 4.864-1.37 2.048-2.05 4.608-2.05 7.68 0 5.973 1.96 10.155 5.89 12.544 4.09 2.219 9.64 3.328 16.64 3.328Zm-3.08-111.616c11.27 0 20.65 1.28 28.16 3.84 7.51 2.56 13.49 6.229 17.92 11.008 4.61 4.779 7.85 10.581 9.73 17.408 1.88 6.827 2.82 14.421 2.82 22.784v79.36c-5.46 1.195-13.06 2.56-22.79 4.096-9.72 1.707-21.5 2.56-35.32 2.56-8.71 0-16.64-.768-23.81-2.304-7-1.536-13.06-4.011-18.18-7.424-5.12-3.584-9.04-8.192-11.77-13.824-2.73-5.632-4.1-12.544-4.1-20.736 0-7.851 1.54-14.507 4.61-19.968 3.24-5.461 7.51-9.813 12.8-13.056 5.29-3.243 11.35-5.547 18.17-6.912 6.83-1.536 13.91-2.304 21.25-2.304 4.95 0 9.3.256 13.06.768 3.92.341 7.08.853 9.47 1.536v-3.584c0-6.485-1.96-11.691-5.89-15.616-3.92-3.925-10.75-5.888-20.48-5.888-6.48 0-12.88.512-19.2 1.536-6.31.853-11.77 2.133-16.38 3.84l-4.87-30.72c2.22-.683 4.95-1.365 8.2-2.048 3.41-.853 7.08-1.536 11-2.048 3.93-.683 8.03-1.195 12.29-1.536 4.44-.512 8.88-.768 13.31-.768Zm146.62 44.544 26.63-40.96h39.42l-46.08 64.768c10.24 12.8 19.54 25.259 27.91 37.376 8.36 12.117 15.01 22.955 19.96 32.512h-40.96c-1.36-2.56-3.07-5.717-5.12-9.472-2.04-3.925-4.35-7.936-6.91-12.032a197.885 197.885 0 0 0-8.19-12.544c-2.73-4.267-5.46-8.107-8.19-11.52a221.636 221.636 0 0 0-7.94 10.752 284.14 284.14 0 0 0-7.42 12.032l-7.17 11.776a249.245 249.245 0 0 0-5.89 11.008h-38.91c2.05-4.267 4.86-9.301 8.45-15.104a597.715 597.715 0 0 1 11.52-17.92c4.26-6.315 8.7-12.544 13.31-18.688 4.61-6.315 9.13-12.203 13.57-17.664a5353.303 5353.303 0 0 1-23.04-32.512 9630.439 9630.439 0 0 0-22.79-32.768h41.22l26.62 40.96Z"/><path fill="#000" d="m433.52 90.536.96-.28-.211-.72h-.749v1Zm6.656 23.808-.966.26.003.011.004.011.959-.282Zm7.936 27.136-.96.279.002.008.003.008.955-.295Zm8.704 28.16-.955.295.955-.295Zm8.448 26.112-.947.322 1.085 3.186.831-3.261-.969-.247Zm6.656-28.416-.974-.227-.002.007-.001.008.977.212Zm6.656-31.744-.983-.184.983.184Zm5.888-32.512-.983-.184-.002.012.985.172Zm5.632-31.488v-1h-.845l-.141.833.986.167Zm41.472 0 .98.197.241-1.197h-1.221v1Zm-20.736 90.368-.969-.249-.001.005.97.244ZM485.744 249v1h.724l.226-.687-.95-.313Zm-36.608 0-.94.343.24.657h.7v-1Zm-17.408-51.456-.955.297.001.003.954-.3Zm-16.64-54.272.957-.289-.957-3.171-.957 3.171.957.289Zm-16.384 54.272.957.292v-.003l-.957-.289ZM381.552 249v1h.7l.24-.657-.94-.343Zm-36.608 0-.95.313.226.687h.724v-1ZM319.6 161.96l-.97.244.001.005.969-.249Zm-20.48-90.368v-1h-1.221l.241 1.197.98-.197Zm43.264 0 .986-.167-.141-.833h-.845v1Zm5.632 31.488-.983.184.001.003.982-.187Zm6.4 32.512.98-.199-.98.199Zm6.656 31.744-.977.212.001.008.002.007.974-.227Zm7.168 28.416-.964.265.826 3.01 1.077-2.93-.939-.345Zm24.832-81.92-.964-.265-.003.009-.002.009.969.247Zm6.4-23.296v-1h-.762l-.202.735.964.265Zm33.088.28c2.046 6.99 4.262 14.919 6.65 23.788l1.932-.52c-2.391-8.88-4.612-16.823-6.662-23.829l-1.92.562Zm6.657 23.81c2.559 8.703 5.204 17.748 7.935 27.133l1.92-.558a9330.736 9330.736 0 0 0-7.937-27.139l-1.918.564Zm7.94 27.149 8.704 28.16 1.91-.59-8.704-28.16-1.91.59Zm8.704 28.16c2.903 9.395 5.722 18.108 8.456 26.139l1.894-.644c-2.728-8.011-5.541-16.706-8.44-26.085l-1.91.59Zm10.372 26.064c2.222-8.717 4.444-18.201 6.664-28.451l-1.954-.424c-2.217 10.23-4.433 19.69-6.648 28.381l1.938.494Zm6.661-28.436a740.687 740.687 0 0 0 6.665-31.787l-1.966-.368a737.565 737.565 0 0 1-6.647 31.701l1.948.454Zm6.665-31.787a2639.455 2639.455 0 0 0 5.89-32.524l-1.97-.344a2658 2658 0 0 1-5.886 32.5l1.966.368Zm5.888-32.512a1838.4 1838.4 0 0 0 5.635-31.505l-1.972-.334a1838.825 1838.825 0 0 1-5.629 31.471l1.966.368Zm4.649-30.672h41.472v-2h-41.472v2Zm40.492-1.197c-5.97 29.678-12.878 59.783-20.725 90.316l1.938.498c7.854-30.566 14.77-60.706 20.747-90.42l-1.96-.394Zm-20.726 90.321c-7.674 30.528-16.031 59.519-25.068 86.971l1.9.626c9.053-27.502 17.423-56.539 25.108-87.109l-1.94-.488ZM485.744 248h-36.608v2h36.608v-2Zm-35.668.657c-5.968-16.368-11.766-33.506-17.394-51.413l-1.908.6c5.636 17.933 11.444 35.099 17.422 51.499l1.88-.686Zm-17.393-51.41a6606.749 6606.749 0 0 1-16.638-54.264l-1.914.578a6571.894 6571.894 0 0 0 16.642 54.28l1.91-.594Zm-18.552-54.264a4.269 4.269 0 0 0-.032.106 4.269 4.269 0 0 0-.032.106 4.269 4.269 0 0 0-.032.106 4.269 4.269 0 0 0-.032.106 4.269 4.269 0 0 0-.032.106 4.269 4.269 0 0 0-.032.106 4.269 4.269 0 0 0-.032.106 4.269 4.269 0 0 0-.032.106 4.269 4.269 0 0 0-.032.106 4.269 4.269 0 0 0-.032.106 4.269 4.269 0 0 0-.032.106 4.269 4.269 0 0 0-.032.106 4.269 4.269 0 0 0-.032.106 4.269 4.269 0 0 0-.032.106 4.269 4.269 0 0 0-.032.106 4.269 4.269 0 0 0-.032.106 4.269 4.269 0 0 0-.032.106 4.269 4.269 0 0 0-.032.106 4.269 4.269 0 0 0-.032.106 4.269 4.269 0 0 0-.032.106 4.269 4.269 0 0 0-.032.106 4.269 4.269 0 0 0-.032.106 4.269 4.269 0 0 0-.032.106 4.269 4.269 0 0 0-.032.106 4.269 4.269 0 0 0-.032.106 4.269 4.269 0 0 0-.032.106 4.269 4.269 0 0 0-.032.106 4.269 4.269 0 0 0-.032.106 4.269 4.269 0 0 0-.032.106 4.269 4.269 0 0 0-.032.106 4.269 4.269 0 0 0-.032.106 4.269 4.269 0 0 0-.032.106 4.269 4.269 0 0 0-.032.106 4.269 4.269 0 0 0-.032.106 4.269 4.269 0 0 0-.032.106 4.269 4.269 0 0 0-.032.106 4.269 4.269 0 0 0-.032.106 4.269 4.269 0 0 0-.032.106 4.269 4.269 0 0 0-.032.106 4.269 4.269 0 0 0-.032.106 4.269 4.269 0 0 0-.032.106 4.269 4.269 0 0 0-.032.106 4.269 4.269 0 0 0-.032.106 4.269 4.269 0 0 0-.032.106 4.269 4.269 0 0 0-.032.106 4.269 4.269 0 0 0-.032.106 4.269 4.269 0 0 0-.032.106 4.269 4.269 0 0 0-.032.106 4.269 4.269 0 0 0-.032.106 4.269 4.269 0 0 0-.032.106 4.269 4.269 0 0 0-.032.106 4.269 4.269 0 0 0-.032.106 4.269 4.269 0 0 0-.032.106 4.269 4.269 0 0 0-.032.106 4.269 4.269 0 0 0-.032.106 4.269 4.269 0 0 0-.032.106 4.269 4.269 0 0 0-.032.106 4.269 4.269 0 0 0-.032.106 4.269 4.269 0 0 0-.032.106 4.269 4.269 0 0 0-.032.106 4.269 4.269 0 0 0-.032.106 4.269 4.269 0 0 0-.032.106 4.269 4.269 0 0 0-.032.106 4.269 4.269 0 0 0-.032.106 4.269 4.269 0 0 0-.032.106 4.269 4.269 0 0 0-.032.106 4.269 4.269 0 0 0-.032.106 4.269 4.269 0 0 0-.032.106 4.269 4.269 0 0 0-.032.106 4.269 4.269 0 0 0-.032.106 4.269 4.269 0 0 0-.032.106 4.269 4.269 0 0 0-.032.106 4.269 4.269 0 0 0-.032.106 4.269 4.269 0 0 0-.032.106 4.269 4.269 0 0 0-.032.106 4.269 4.269 0 0 0-.032.106 4.269 4.269 0 0 0-.032.106 4.269 4.269 0 0 0-.032.106 4.269 4.269 0 0 0-.032.106 4.269 4.269 0 0 0-.032.106 4.269 4.269 0 0 0-.032.106 4.269 4.269 0 0 0-.032.106 4.269 4.269 0 0 0-.032.106 4.269 4.269 0 0 0-.032.106 4.269 4.269 0 0 0-.032.106 4.269 4.269 0 0 0-.032.106 4.269 4.269 0 0 0-.032.106 4.269 4.269 0 0 0-.032.106 4.269 4.269 0 0 0-.032.106 4.269 4.269 0 0 0-.032.106 4.269 4.269 0 0 0-.032.106 4.269 4.269 0 0 0-.032.106 4.269 4.269 0 0 0-.032.106 4.269 4.269 0 0 0-.032.106 4.269 4.269 0 0 0-.032.106 4.269 4.269 0 0 0-.032.106 4.269 4.269 0 0 0-.032.106 4.269 4.269 0 0 0-.032.106 4.269 4.269 0 0 0-.032.106 4.269 4.269 0 0 0-.032.106 4.269 4.269 0 0 0-.032.106 4.269 4.269 0 0 0-.032.106 4.269 4.269 0 0 0-.032.106 4.269 4.269 0 0 0-.032.106 4.269 4.269 0 0 0-.032.106 4.269 4.269 0 0 0-.032.106 4.269 4.269 0 0 0-.032.106 4.269 4.269 0 0 0-.032.106 4.269 4.269 0 0 0-.032.106 4.269 4.269 0 0 0-.032.106 4.269 4.269 0 0 0-.032.106 4.269 4.269 0 0 0-.032.106 4.269 4.269 0 0 0-.032.106 4.269 4.269 0 0 0-.032.106 4.269 4.269 0 0 0-.032.106 4.269 4.269 0 0 0-.032.106 4.269 4.269 0 0 0-.032.106 4.269 4.269 0 0 0-.032.106 4.269 4.269 0 0 0-.032.106 4.269 4.269 0 0 0-.032.106 4.269 4.269 0 0 0-.032.106 4.269 4.269 0 0 0-.032.106 4.269 4.269 0 0 0-.032.106 4.269 4.269 0 0 0-.032.106 4.269 4.269 0 0 0-.032.106 4.269 4.269 0 0 0-.032.106 4.269 4.269 0 0 0-.032.106 4.269 4.269 0 0 0-.032.106 4.269 4.269 0 0 0-.032.106 4.269 4.269 0 0 0-.032.106 4.269 4.269 0 0 0-.032.106 4.269 4.269 0 0 0-.032.106 4.269 4.269 0 0 0-.032.106 4.269 4.269 0 0 0-.032.106 4.269 4.269 0 0 0-.032.106 4.269 4.269 0 0 0-.032.106 4.269 4.269 0 0 0-.032.106 4.269 4.269 0 0 0-.032.106 4.269 4.269 0 0 0-.032.106 4.269 4.269 0 0 0-.032.106 4.269 4.269 0 0 0-.032.106 4.269 4.269 0 0 0-.032.106 4.269 4.269 0 0 0-.032.106 4.269 4.269 0 0 0-.032.106 4.269 4.269 0 0 0-.032.106 4.269 4.269 0 0 0-.032.106 4.269 4.269 0 0 0-.032.106 4.269 4.269 0 0 0-.032.106 4.269 4.269 0 0 0-.032.106 4.269 4.269 0 0 0-.032.106 4.269 4.269 0 0 0-.032.106 4.269 4.269 0 0 0-.032.106 4.269 4.269 0 0 0-.032.106 4.269 4.269 0 0 0-.032.106 4.269 4.269 0 0 0-.032.106 4.269 4.269 0 0 0-.032.106 4.269 4.269 0 0 0-.032.106 4.269 4.269 0 0 0-.032.106 4.269 4.269 0 0 0-.032.106 4.269 4.269 0 0 0-.032.106 4.269 4.269 0 0 0-.032.106 4.269 4.269 0 0 0-.032.106 4.269 4.269 0 0 0-.032.106 4.269 4.269 0 0 0-.032.106 4.269 4.269 0 0 0-.032.106 4.269 4.269 0 0 0-.032.106 4.269 4.269 0 0 0-.032.106 4.269 4.269 0 0 0-.032.106 4.269 4.269 0 0 0-.032.106 4.269 4.269 0 0 0-.032.106 4.269 4.269 0 0 0-.032.106 4.269 4.269 0 0 0-.032.106 4.269 4.269 0 0 0-.032.106 4.269 4.269 0 0 0-.032.106 4.269 4.269 0 0 0-.032.106 4.269 4.269 0 0 0-.032.106 4.269 4.269 0 0 0-.032.106 4.269 4.269 0 0 0-.032.106 4.269 4.269 0 0 0-.032.106 4.269 4.269 0 0 0-.032.106 4.269 4.269 0 0 0-.032.106 4.269 4.269 0 0 0-.032.106 4.269 4.269 0 0 0-.032.106 4.269 4.269 0 0 0-.032.106 4.269 4.269 0 0 0-.032.106 4.269 4.269 0 0 0-.032.106 4.269 4.269 0 0 0-.032.106 4.269 4.269 0 0 0-.032.106 4.269 4.269 0 0 0-.032.106 4.269 4.269 0 0 0-.032.106 4.269 4.269 0 0 0-.032.106 4.269 4.269 0 0 0-.032.106 4.269 4.269 0 0 0-.032.106 4.269 4.269 0 0 0-.032.106 4.269 4.269 0 0 0-.032.106 4.269 4.269 0 0 0-.032.106 4.269 4.269 0 0 0-.032.106 4.269 4.269 0 0 0-.032.106 4.269 4.269 0 0 0-.032.106 4.269 4.269 0 0 0-.032.106 4.269 4.269 0 0 0-.032.106 4.269 4.269 0 0 0-.032.106 4.269 4.269 0 0 0-.032.106 4.269 4.269 0 0 0-.032.106 4.269 4.269 0 0 0-.032.106 4.269 4.269 0 0 0-.032.106 4.269 4.269 0 0 0-.032.106 4.269 4.269 0 0 0-.032.106 4.269 4.269 0 0 0-.032.106 4.269 4.269 0 0 0-.032.106 4.269 4.269 0 0 0-.032.106 4.269 4.269 0 0 0-.032.106 4.269 4.269 0 0 0-.032.106 4.269 4.269 0 0 0-.032.106 4.269 4.269 0 0 0-.032.106 4.269 4.269 0 0 0-.032.106 4.269 4.269 0 0 0-.032.106 4.269 4.269 0 0 0-.032.106 4.269 4.269 0 0 0-.032.106 4.269 4.269 0 0 0-.032.106 4.269 4.269 0 0 0-.032.106 4.269 4.269 0 0 0-.032.106 4.269 4.269 0 0 0-.032.106 4.269 4.269 0 0 0-.032.106 4.269 4.269 0 0 0-.032.106 4.269 4.269 0 0 0-.032.106 4.269 4.269 0 0 0-.032.106 4.269 4.269 0 0 0-.032.106 4.269 4.269 0 0 0-.032.106 4.269 4.269 0 0 0-.032.106 4.269 4.269 0 0 0-.032.106 4.269 4.269 0 0 0-.032.106 4.269 4.269 0 0 0-.032.106 4.269 4.269 0 0 0-.032.106 4.269 4.269 0 0 0-.032.106 4.269 4.269 0 0 0-.032.106 4.269 4.269 0 0 0-.032.106 4.269 4.269 0 0 0-.032.106 4.269 4.269 0 0 0-.032.106 4.269 4.269 0 0 0-.032.106 4.269 4.269 0 0 0-.032.106 4.269 4.269 0 0 0-.032.106 4.269 4.269 0 0 0-.032.106 4.269 4.269 0 0 0-.032.106 4.269 4.269 0 0 0-.032.106 4.269 4.269 0 0 0-.032.106 4.269 4.269 0 0 0-.032.106 4.269 4.269 0 0 0-.032.106 4.269 4.269 0 0 0-.032.106 4.269 4.269 0 0 0-.032.106 4.269 4.269 0 0 0-.032.106 4.269 4.269 0 0 0-.032.106 4.269 4.269 0 0 0-.032.106 4.269 4.269 0 0 0-.032.106 4.269 4.269 0 0 0-.032.106 4.269 4.269 0 0 0-.032.106 4.269 4.269 0 0 0-.032.106 4.269 4.269 0 0 0-.032.106 4.269 4.269 0 0 0-.032.106 4.269 4.269 0 0 0-.032.106 4.269 4.269 0 0 0-.032.106 4.269 4.269 0 0 0-.032.106 4.269 4.269 0 0 0-.032.106 4.269 4.269 0 0 0-.032.106 4.269 4.269 0 0 0-.032.106 4.269 4.269 0 0 0-.032.106 4.269 4.269 0 0 0-.032.106 4.269 4.269 0 0 0-.032.106 4.269 4.269 0 0 0-.032.106 4.269 4.269 0 0 0-.032.106 4.269 4.269 0 0 0-.032.106 4.269 4.269 0 0 0-.032.106 4.269 4.269 0 0 0-.032.106 4.269 4.269 0 0 0-.032.106 4.269 4.269 0 0 0-.032.106 4.269 4.269 0 0 0-.032.106 4.269 4.269 0 0 0-.032.106 4.269 4.269 0 0 0-.032.106 4.269 4.269 0 0 0-.032.106 4.269 4.269 0 0 0-.032.106 4.269 4.269 0 0 0-.032.106 4.269 4.269 0 0 0-.032.106 4.269 4.269 0 0 0-.032.106 4.269 4.269 0 0 0-.032.106 4.269 4.269 0 0 0-.032.106 4.269 4.269 0 0 0-.032.106 4.269 4.269 0 0 0-.032.106 4.269 4.269 0 0 0-.032.106 4.269 4.269 0 0 0-.032.106 4.269 4.269 0 0 0-.032.106 4.269 4.269 0 0 0-.032.106 4.269 4.269 0 0 0-.032.106 4.269 4.269 0 0 0-.032.106 4.269 4.269 0 0 0-.032.106 4.269 4.269 0 0 0-.032.106 4.269 4.269 0 0 0-.032.106 4.269 4.269 0 0 0-.032.106 4.269 4.269 0 0 0-.032.106 4.269 4.269 0 0 0-.032.106 4.269 4.269 0 0 0-.032.106 4.269 4.269 0 0 0-.032.106 4.269 4.269 0 0 0-.032.106 4.269 4.269 0 0 0-.032.106 4.269 4.269 0 0 0-.032.106 4.269 4.269 0 0 0-.032.106 4.269 4.269 0 0 0-.032.106 4.269 4.269 0 0 0-.032.106 4.269 4.269 0 0 0-.032.106 4.269 4.269 0 0 0-.032.106 4.269 4.269 0 0 0-.032.106 4.269 4.269 0 0 0-.032.106 4.269 4.269 0 0 0-.032.106 4.269 4.269 0 0 0-.032.106 4.269 4.269 0 0 0-.032.106 4.269 4.269 0 0 0-.032.106 4.269 4.269 0 0 0-.032.106 4.269 4.269 0 0 0-.032.106 4.269 4.269 0 0 0-.032.106 4.269 4.269 0 0 0-.032.106 4.269 4.269 0 0 0-.032.106 4.269 4.269 0 0 0-.032.106 4.269 4.269 0 0 0-.032.106 4.269 4.269 0 0 0-.032.106 4.269 4.269 0 0 0-.032.106 4.269 4.269 0 0 0-.032.106 4.269 4.269 0 0 0-.032.106 4.269 4.269 0 0 0-.032.106 4.269 4.269 0 0 0-.032.106 4.269 4.269 0 0 0-.032.106 4.269 4.269 0 0 0-.032.106 4.269 4.269 0 0 0-.032.106 4.269 4.269 0 0 0-.032.106 4.269 4.269 0 0 0-.032.106 4.269 4.269 0 0 0-.032.106 4.269 4.269 0 0 0-.032.106 4.269 4.269 0 0 0-.032.106 4.269 4.269 0 0 0-.032.106 4.269 4.269 0 0 0-.032.106 4.269 4.269 0 0 0-.032.106 4.269 4.269 0 0 0-.032.106 4.269 4.269 0 0 0-.032.106 4.269 4.269 0 0 0-.032.106 4.269 4.269 0 0 0-.032.106 4.269 4.269 0 0 0-.032.106 4.269 4.269 0 0 0-.032.106 4.269 4.269 0 0 0-.032.106 4.269 4.269 0 0 0-.032.106 4.269 4.269 0 0 0-.032.106 4.269 4.269 0 0 0-.032.106 4.269 4.269 0 0 0-.032.106 4.269 4.269 0 0 0-.032.106 4.269 4.269 0 0 0-.032.106 4.269 4.269 0 0 0-.032.106 4.269 4.269 0 0 0-.032.106 4.269 4.269 0 0 0-.032.106 4.269 4.269 0 0 0-.032.106 4.269 4.269 0 0 0-.032.106 4.269 4.269 0 0 0-.032.106 4.269 4.269 0 0 0-.032.106 4.269 4.269 0 0 0-.032.106 4.269 4.269 0 0 0-.032.106 4.269 4.269 0 0 0-.032.106 4.269 4.269 0 0 0-.032.106 4.269 4.269 0 0 0-.032.106 4.269 4.269 0 0 0-.032.106 4.269 4.269 0 0 0-.032.106 4.269 4.269 0 0 0-.032.106 4.269 4.269 0 0 0-.032.106 4.269 4.269 0 0 0-.032.106 4.269 4.269 0 0 0-.032.106 4.269 4.269 0 0 0-.032.106 4.269 4.269 0 0 0-.032.106 4.269 4.269 0 0 0-.032.106 4.269 4.269 0 0 0-.032.106 4.269 4.269 0 0 0-.032.106 4.269 4.269 0 0 0-.032.106 4.269 4.269 0 0 0-.032.106 4.269 4.269 0 0 0-.032.106 4.269 4.269 0 0 0-.032.106 4.269 4.269 0 0 0-.032.106 4.269 4.269 0 0 0-.032.106 4.269 4.269 0 0 0-.032.106 4.269 4.269 0 0 0-.032.106 4.269 4.269 0 0 0-.032.106 4.269 4.269 0 0 0-.032.106 4.269 4.269 0 0 0-.032.106 4.269 4.269 0 0 0-.032.106 4.269 4.269 0 0 0-.032.106 4.269 4.269 0 0 0-.032.106 4.269 4.269 0 0 0-.032.106 4.269 4.269 0 0 0-.032.106 4.269 4.269 0 0 0-.032.106 4.269 4.269 0 0 0-.032.106 4.269 4.269 0 0 0-.032.106 4.269 4.269 0 0 0-.032.106 4.269 4.269 0 0 0-.032.106 4.269 4.269 0 0 0-.032.106 4.269 4.269 0 0 0-.032.106 4.269 4.269 0 0 0-.032.106 4.269 4.269 0 0 0-.032.106 4.269 4.269 0 0 0-.032.106 4.269 4.269 0 0 0-.032.106 4.269 4.269 0 0 0-.032.106 4.269 4.269 0 0 0-.032.106 4.269 4.269 0 0 0-.032.106 4.269 4.269 0 0 0-.032.106 4.269 4.269 0 0 0-.032.106 4.269 4.269 0 0 0-.032.106 4.269 4.269 0 0 0-.032.106 4.269 4.269 0 0 0-.032.106 4.269 4.269 0 0 0-.032.106 4.269 4.269 0 0 0-.032.106 4.269 4.269 0 0 0-.032.106 4.269 4.269 0 0 0-.032.106 4.269 4.269 0 0 0-.032.106 4.269 4.269 0 0 0-.032.106 4.269 4.269 0 0 0-.032.106 4.269 4.269 0 0 0-.032.106 4.269 4.269 0 0 0-.032.106 4.269 4.269 0 0 0-.032.106 4.269 4.269 0 0 0-.032.106 4.269 4.269 0 0 0-.032.106 4.269 4.269 0 0 0-.032.106 4.269 4.269 0 0 0-.032.106 4.269 4.269 0 0 0-.032.106 4.269 4.269 0 0 0-.032.106 4.269 4.269 0 0 0-.032.106 4.269 4.269 0 0 0-.032.106 4.269 4.269 0 0 0-.032.106 4.269 4.269 0 0 0-.032.106 4.269 4.269 0 0 0-.032.106 4.269 4.269 0 0 0-.032.106 4.269 4.269 0 0 0-.032.106 4.269 4.269 0 0 0-.032.106 4.269 4.269 0 0 0-.032.106 4.269 4.269 0 0 0-.032.106 4.269 4.269 0 0 0-.032.106 4.269 4.269 0 0 0-.032.106 4.269 4.269 0 0 0-.032.106 4.269 4.269 0 0 0-.032.106 4.269 4.269 0 0 0-.032.106 4.269 4.269 0 0 0-.032.106 4.269 4.269 0 0 0-.032.106 4.269 4.269 0 0 0-.032.106 4.269 4.269 0 0 0-.032.106 4.269 4.269 0 0 0-.032.106 4.269 4.269 0 0 0-.032.106 4.269 4.269 0 0 0-.032.106 4.269 4.269 0 0 0-.032.106 4.269 4.269 0 0 0-.032.106 4.269 4.269 0 0 0-.032.106 4.269 4.269 0 0 0-.032.106 4.269 4.269 0 0 0-.032.106 4.269 4.269 0 0 0-.032.106 4.269 4.269 0 0 0-.032.106 4.269 4.269 0 0 0-.032.106 4.269 4.269 0 0 0-.032.106 4.269 4.269 0 0 0-.032.106 4.269 4.269 0 0 0-.032.106 4.269 4.269 0 0 0-.032.106 4.269 4.269 0 0 0-.032.106 4.269 4.269 0 0 0-.032.106 4.269 4.269 0 0 0-.032.106 4.269 4.269 0 0 0-.032.106 4.269 4.269 0 0 0-.032.106 4.269 4.269 0 0 0-.032.106 4.269 4.269 0 0 0-.032.106 4.269 4.269 0 0 0-.032.106 4.269 4.269 0 0 0-.032.106 4.269 4.269 0 0 0-.032.106 4.269 4.269 0 0 0-.032.106 4.269 4.269 0 0 0-.032.106 4.269 4.269 0 0 0-.032.106 4.269 4.269 0 0 0-.032.106 4.269 4.269 0 0 0-.032.106 4.269 4.269 0 0 0-.032.106 4.269 4.269 0 0 0-.032.106 4.269 4.269 0 0 0-.032.106 4.269 4.269 0 0 0-.032.106 4.269 4.269 0 0 0-.032.106 4.269 4.269 0 0 0-.032.106 4.269 4.269 0 0 0-.032.106 4.269 4.269 0 0 0-.032.106 4.269 4.269 0 0 0-.032.106 4.269 4.269 0 0 0-.032.106 4.269 4.269 0 0 0-.032.106 4.269 4.269 0 0 0-.032.106 4.269 4.269 0 0 0-.032.106 4.269 4.269 0 0 0-.032.106 4.269 4.269 0 0 0-.032.106 4.269 4.269 0 0 0-.032.106 4.269 4.269 0 0 0-.032.106 4.269 4.269 0 0 0-.032.106 4.269 4.269 0 0 0-.032.106 4.269 4.269 0 0 0-.032.106 4.269 4.269 0 0 0-.032.106 4.269 4.269 0 0 0-.032.106 4.269 4.269 0 0 0-.032.106 4.269 4.269 0 0 0-.032.106 4.269 4.269 0 0 0-.032.106 4.269 4.269 0 0 0-.032.106 4.269 4.269 0 0 0-.032.106 4.269 4.269 0 0 0-.032.106 4.269 4.269 0 0 0-.032.106 4.269 4.269 0 0 0-.032.106 4.269 4.269 0 0 0-.032.106 4.269 4.269 0 0 0-.032.106 4.269 4.269 0 0 0-.032.106 4.269 4.269 0 0 0-.032.106 4.269 4.269 0 0 0-.032.106 4.269 4.269 0 0 0-.032.106 4.269 4.269 0 0 0-.032.106l1.914.578.032-.106.032-.106.032-.106.032-.106.032-.106.032-.106.032-.106.032-.106.032-.106.032-.106.032-.106.032-.106.032-.106.032-.106.032-.106.032-.106.032-.106.032-.106.032-.106.032-.106.032-.106.032-.106.032-.106.032-.106.032-.106.032-.106.032-.106.032-.106.032-.106.032-.106.032-.106.032-.106.032-.106.032-.106.032-.106.032-.106.032-.106.032-.106.032-.106.032-.106.032-.106.032-.106.032-.106.032-.106.032-.106.032-.106.032-.106.032-.106.032-.106.032-.106.032-.106.032-.106.032-.106.032-.106.032-.106.032-.106.032-.106.032-.106.032-.106.032-.106.032-.106.032-.106.032-.106.032-.106.032-.106.032-.106.032-.106.032-.106.032-.106.032-.106.032-.106.032-.106.032-.106.032-.106.032-.106.032-.106.032-.106.032-.106.032-.106.032-.106.032-.106.032-.106.032-.106.032-.106.032-.106.032-.106.032-.106.032-.106.032-.106.032-.106.032-.106.032-.106.032-.106.032-.106.032-.106.032-.106.032-.106.032-.106.032-.106.032-.106.032-.106.032-.106.032-.106.032-.106.032-.106.032-.106.032-.106.032-.106.032-.106.032-.106.032-.106.032-.106.032-.106.032-.106.032-.106.032-.106.032-.106.032-.106.032-.106.032-.106.032-.106.032-.106.032-.106.032-.106.032-.106.032-.106.032-.106.032-.106.032-.106.032-.106.032-.106.032-.106.032-.106.032-.106.032-.106.032-.106.032-.106.032-.106.032-.106.032-.106.032-.106.032-.106.032-.106.032-.106.032-.106.032-.106.032-.106.032-.106.032-.106.032-.106.032-.106.032-.106.032-.106.032-.106.032-.106.032-.106.032-.106.032-.106.032-.106.032-.106.032-.106.032-.106.032-.106.032-.106.032-.106.032-.106.032-.106.032-.106.032-.106.032-.106.032-.106.032-.106.032-.106.032-.106.032-.106.032-.106.032-.106.032-.106.032-.106.032-.106.032-.106.032-.106.032-.106.032-.106.032-.106.032-.106.032-.106.032-.106.032-.106.032-.106.032-.106.032-.106.032-.106.032-.106.032-.106.032-.106.032-.106.032-.106.032-.106.032-.106.032-.106.032-.106.032-.106.032-.106.032-.106.032-.106.032-.106.032-.106.032-.106.032-.106.032-.106.032-.106.032-.106.032-.106.032-.106.032-.106.032-.106.032-.106.032-.106.032-.106.032-.106.032-.106.032-.106.032-.106.032-.106.032-.106.032-.106.032-.106.032-.106.032-.106.032-.106.032-.106.032-.106.032-.106.032-.106.032-.106.032-.106.032-.106.032-.106.032-.106.032-.106.032-.106.032-.106.032-.106.032-.106.032-.106.032-.106.032-.106.032-.106.032-.106.032-.106.032-.106.032-.106.032-.106.032-.106.032-.106.032-.106.032-.106.032-.106.032-.106.032-.106.032-.106.032-.106.032-.106.032-.106.032-.106.032-.106.032-.106.032-.106.032-.106.032-.106.032-.106.032-.106.032-.106.032-.106.032-.106.032-.106.032-.106.032-.106.032-.106.032-.106.032-.106.032-.106.032-.106.032-.106.032-.106.032-.106.032-.106.032-.106.032-.106.032-.106.032-.106.032-.106.032-.106.032-.106.032-.106.032-.106.032-.106.032-.106.032-.106.032-.106.032-.106.032-.106.032-.106.032-.106.032-.106.032-.106.032-.106.032-.106.032-.106.032-.106.032-.106.032-.106.032-.106.032-.106.032-.106.032-.106.032-.106.032-.106.032-.106.032-.106.032-.106.032-.106.032-.106.032-.106.032-.106.032-.106.032-.106.032-.106.032-.106.032-.106.032-.106.032-.106.032-.106.032-.106.032-.106.032-.106.032-.106.032-.106.032-.106.032-.106.032-.106.032-.106.032-.106.032-.106.032-.106.032-.106.032-.106.032-.106.032-.106.032-.106.032-.106.032-.106.032-.106.032-.106.032-.106.032-.106.032-.106.032-.106.032-.106.032-.106.032-.106.032-.106.032-.106.032-.106.032-.106.032-.106.032-.106.032-.106.032-.106.032-.106.032-.106.032-.106.032-.106.032-.106.032-.106.032-.106.032-.106.032-.106.032-.106.032-.106.032-.106.032-.106.032-.106.032-.106.032-.106.032-.106.032-.106.032-.106.032-.106.032-.106.032-.106.032-.106.032-.106.032-.106.032-.106.032-.106.032-.106.032-.106.032-.106.032-.106.032-.106.032-.106.032-.106.032-.106.032-.106.032-.106.032-.106.032-.106.032-.106.032-.106.032-.106.032-.106.032-.106.032-.106.032-.106.032-.106.032-.106.032-.106.032-.106.032-.106.032-.106.032-.106.032-.106.032-.106.032-.106.032-.106.032-.106.032-.106.032-.106.032-.106.032-.106.032-.106.032-.106.032-.106.032-.106.032-.106.032-.106.032-.106.032-.106.032-.106.032-.106.032-.106.032-.106.032-.106.032-.106.032-.106.032-.106.032-.106.032-.106.032-.106.032-.106.032-.106.032-.106.032-.106.032-.106.032-.106.032-.106.032-.106.032-.106.032-.106.032-.106.032-.106.032-.106.032-.106.032-.106.032-.106.032-.106.032-.106.032-.106.032-.106.032-.106.032-.106.032-.106.032-.106.032-.106.032-.106.032-.106.032-.106.032-.106.032-.106.032-.106.032-.106.032-.106.032-.106.032-.106.032-.106.032-.106.032-.106.032-.106.032-.106.032-.106.032-.106.032-.106.032-.106.032-.106.032-.106.032-.106.032-.106.032-.106.032-.106.032-.106.032-.106.032-.106.032-.106.032-.106.032-.106.032-.106.032-.106.032-.106.032-.106.032-.106-1.914-.578Zm-16.384 54.269c-5.456 17.905-11.168 35.04-17.135 51.405l1.88.686c5.979-16.403 11.702-33.572 17.169-51.507l-1.914-.584ZM381.552 248h-36.608v2h36.608v-2Zm-35.658.687c-9.038-27.454-17.48-56.446-25.325-86.976l-1.938.498c7.856 30.569 16.31 59.604 25.363 87.104l1.9-.626Zm-25.324-86.971c-7.676-30.534-14.5-60.641-20.47-90.321l-1.96.394c5.976 29.712 12.806 59.851 20.49 90.415l1.94-.488Zm-21.45-89.124h43.264v-2H299.12v2Zm42.278-.833a1838.4 1838.4 0 0 0 5.635 31.505l1.966-.368a1838.825 1838.825 0 0 1-5.629-31.471l-1.972.334Zm5.636 31.508a2717.985 2717.985 0 0 0 6.402 32.524l1.96-.398a2733.991 2733.991 0 0 1-6.398-32.5l-1.964.374Zm6.402 32.524a2489.486 2489.486 0 0 0 6.659 31.757l1.954-.424a2513.17 2513.17 0 0 1-6.653-31.731l-1.96.398Zm6.662 31.772c2.392 10.251 4.784 19.735 7.178 28.454l1.928-.53c-2.385-8.689-4.771-18.149-7.158-28.378l-1.948.454Zm9.081 28.534c3.078-8.381 6.07-17.272 8.976-26.674l-1.91-.59c-2.897 9.371-5.878 18.229-8.944 26.574l1.878.69Zm8.976-26.674a1761.126 1761.126 0 0 0 8.453-28.176l-1.92-.558a1770.568 1770.568 0 0 1-8.443 28.144l1.91.59Zm8.453-28.176a840.808 840.808 0 0 0 7.433-27.168l-1.938-.494a840.328 840.328 0 0 1-7.415 27.104l1.92.558Zm7.428-27.15c2.39-8.704 4.523-16.47 6.4-23.296l-1.928-.53c-1.878 6.827-4.011 14.592-6.4 23.296l1.928.53Zm5.436-22.561h34.048v-2h-34.048v2ZM665.764 249l-.956.292.216.708h.74v-1Zm-6.4-18.944-.946.324.004.011.004.011.938-.346Zm-6.656-19.456.946-.324-.231-.676h-.715v1Zm-69.12 0v-1h-.715l-.231.676.946.324Zm-6.912 19.456-.938-.346-.004.011-.004.011.946.324ZM570.532 249v1h.74l.216-.708-.956-.292Zm-41.472 0-.944-.329-.463 1.329h1.407v-1Zm18.944-52.992.938.346-.938-.346Zm17.408-45.824-.927-.375-.004.009.931.366Zm16.896-40.704-.917-.398-.003.006.92.392Zm17.408-37.888v-1h-.626l-.273.563.899.437Zm38.144 0 .904-.427-.27-.573h-.634v1Zm17.152 37.888-.917.398.002.005.915-.403Zm16.896 40.704-.931.366.004.009.927-.375Zm17.664 45.824-.938.346.938-.346ZM708.516 249v1h1.407l-.463-1.329-.944.329Zm-90.624-137.216.928-.371-1.013-2.535-.864 2.59.949.316Zm-3.84 10.496-.933-.359.933.359Zm-5.888 15.36-.934-.357.934.357Zm-7.424 19.2-.932-.364-.003.01-.004.01.939.344Zm-7.936 22.016-.942-.335-.475 1.335h1.417v-1Zm50.432 0v1h1.417l-.475-1.335-.942.335ZM635.3 156.84l-.939.344.939-.344Zm-7.424-19.2-.934.357.004.012.005.012.925-.381Zm-5.888-15.36.933-.359-.933.359Zm44.732 126.428a354.706 354.706 0 0 0-6.418-18.998l-1.876.692a354.576 354.576 0 0 1 6.382 18.89l1.912-.584Zm-6.41-18.976-.416-1.216-.416-1.216-.416-1.216-.416-1.216-.416-1.216-.416-1.216-.416-1.216-.416-1.216a13.82 13.82 0 0 0-.104-.304 13.82 13.82 0 0 0-.104-.304 13.82 13.82 0 0 0-.104-.304 13.82 13.82 0 0 0-.104-.304 13.82 13.82 0 0 0-.104-.304 13.82 13.82 0 0 0-.104-.304 13.82 13.82 0 0 0-.104-.304 13.82 13.82 0 0 0-.104-.304 13.82 13.82 0 0 0-.104-.304 13.82 13.82 0 0 0-.104-.304 13.82 13.82 0 0 0-.104-.304l-.052-.152-.052-.152-.052-.152-.052-.152-.052-.152-.052-.152-.052-.152-.013-.038-.013-.038-.026-.076-.104-.304-.104-.304-.104-.304-.104-.304-.104-.304-.104-.304-.104-.304-.104-.304-.026-.076-.026-.076-.026-.076a6.644 6.644 0 0 1-.026-.076l-.208-.608-.208-.608-.208-.608-.208-.608-1.892.648.052.152.052.152.052.152.052.152.052.152.052.152.052.152.052.152.052.152.052.152.052.152.052.152.052.152.052.152.052.152.052.152.052.152.052.152.052.152.052.152.052.152.052.152.052.152.052.152.052.152.052.152.052.152.052.152.052.152.052.152.052.152.052.152.052.152.052.152.052.152.013.038.013.038.013.038.013.038.013.038.013.038.013.038.013.038.013.038.013.038.013.038.013.038.013.038.013.038.013.038.013.038.013.038.013.038.013.038.013.038.052.152.052.152.026.076.026.076.026.076.026.076.026.076.026.076.026.076.026.076.026.076.026.076.026.076.026.076.026.076.026.076.026.076.026.076.026.076.026.076.026.076.026.076.104.304.104.304.416 1.216a13.82 13.82 0 0 0 .104.304 13.82 13.82 0 0 0 .104.304 13.82 13.82 0 0 0 .104.304 13.82 13.82 0 0 0 .104.304 13.82 13.82 0 0 0 .104.304 13.82 13.82 0 0 0 .104.304 13.82 13.82 0 0 0 .104.304 13.82 13.82 0 0 0 .104.304 13.82 13.82 0 0 0 .104.304 13.82 13.82 0 0 0 .104.304 13.82 13.82 0 0 0 .104.304 13.82 13.82 0 0 0 .104.304 13.82 13.82 0 0 0 .104.304 13.82 13.82 0 0 0 .104.304 13.82 13.82 0 0 0 .104.304 13.82 13.82 0 0 0 .104.304 13.82 13.82 0 0 0 .104.304 13.82 13.82 0 0 0 .104.304 13.82 13.82 0 0 0 .104.304 13.82 13.82 0 0 0 .104.304 13.82 13.82 0 0 0 .104.304 13.82 13.82 0 0 0 .104.304 13.82 13.82 0 0 0 .104.304 13.82 13.82 0 0 0 .104.304 13.82 13.82 0 0 0 .104.304 13.82 13.82 0 0 0 .104.304 13.82 13.82 0 0 0 .104.304 13.82 13.82 0 0 0 .104.304 13.82 13.82 0 0 0 .104.304 13.82 13.82 0 0 0 .104.304 13.82 13.82 0 0 0 .104.304 13.82 13.82 0 0 0 .104.304l1.892-.648Zm-7.602-20.132h-69.12v2h69.12v-2Zm-70.066.676a885.102 885.102 0 0 1-6.904 19.434l1.876.692a885.771 885.771 0 0 0 6.92-19.478l-1.892-.648Zm-6.912 19.456a601.667 601.667 0 0 0-6.154 18.976l1.912.584a601.952 601.952 0 0 1 6.134-18.912l-1.892-.648ZM570.532 248H529.06v2h41.472v-2Zm-40.528 1.329c6.655-19.11 12.967-36.768 18.938-52.975l-1.876-.692c-5.976 16.22-12.293 33.89-18.95 53.009l1.888.658Zm18.938-52.975c5.972-16.208 11.772-31.476 17.401-45.804l-1.862-.732c-5.635 14.344-11.44 29.625-17.415 45.844l1.876.692Zm17.397-45.795a2364.626 2364.626 0 0 1 16.889-40.687l-1.84-.784a2367.256 2367.256 0 0 0-16.903 40.721l1.854.75Zm16.886-40.681a973.396 973.396 0 0 1 17.39-37.849l-1.798-.874a973.514 973.514 0 0 0-17.426 37.927l1.834.796Zm16.491-37.286h38.144v-2h-38.144v2Zm37.24-.573a1318.667 1318.667 0 0 1 17.139 37.859l1.834-.796a1318.085 1318.085 0 0 0-17.165-37.917l-1.808.854Zm17.141 37.864c5.626 12.786 11.253 26.342 16.88 40.667l1.862-.732c-5.637-14.347-11.274-27.927-16.912-40.741l-1.83.806Zm16.884 40.676c5.798 14.325 11.683 29.59 17.653 45.795l1.876-.692c-5.976-16.222-11.868-31.506-17.675-45.853l-1.854.75Zm17.653 45.795c5.971 16.207 12.283 33.865 18.938 52.975l1.888-.658c-6.657-19.119-12.974-36.789-18.95-53.009l-1.876.692ZM708.516 248h-42.752v2h42.752v-2Zm-91.573-136.532c-.846 2.539-2.12 6.021-3.824 10.453l1.866.718c1.709-4.443 2.995-7.958 3.856-10.539l-1.898-.632Zm-3.824 10.453c-1.707 4.438-3.67 9.559-5.889 15.362l1.868.714a9399.104 9399.104 0 0 1 5.887-15.358l-1.866-.718Zm-5.889 15.362c-2.218 5.8-4.692 12.198-7.422 19.193l1.864.728c2.731-7 5.206-13.402 7.426-19.207l-1.868-.714Zm-7.429 19.213a2559.95 2559.95 0 0 0-7.939 22.025l1.884.67c2.73-7.677 5.374-15.013 7.933-22.007l-1.878-.688Zm-6.997 23.36h50.432v-2h-50.432v2Zm51.374-1.335a2559.95 2559.95 0 0 0-7.939-22.025l-1.878.688c2.559 6.994 5.203 14.33 7.933 22.007l1.884-.67Zm-7.939-22.025c-2.564-7.007-5.043-13.42-7.438-19.237l-1.85.762c2.384 5.788 4.854 12.175 7.41 19.163l1.878-.688Zm-7.429-19.213a8535.324 8535.324 0 0 0-5.889-15.362l-1.866.718c1.706 4.437 3.668 9.556 5.887 15.358l1.868-.714Zm-5.889-15.362a877.333 877.333 0 0 0-4.101-10.508l-1.856.742a901.352 901.352 0 0 1 4.091 10.484l1.866-.718ZM739.828 228.52l-.73.683.004.005.726-.688ZM724.212 121l.928.374.001-.005-.929-.369Zm18.944-29.184.7.715.007-.008-.707-.707Zm28.672-18.176-.346-.938.346.938Zm56.576-4.352-.191.982.013.002.014.002.164-.986Zm16.128 3.84-.316.949.016.005.016.005.284-.959Zm18.176 7.936.942.336.27-.758-.682-.426-.53.848Zm-11.52 32.256-.469.883 1.022.543.389-1.09-.942-.336Zm-19.2-7.424-.275.962.006.001.269-.963Zm-42.752 0-.324-.946-.009.003.333.943Zm-15.616 9.984-.707-.707.707.707Zm-12.288 66.56-.973.232.003.013.004.014.966-.259Zm8.704 18.176-.794.608.007.009.006.008.781-.625Zm15.872 12.288-.428.904.01.004.01.005.408-.913Zm39.168 3.328-.147-.989.147.989Zm12.288-2.304.232.973.021-.005.022-.006-.275-.962Zm9.472-3.328.401.916-.401-.916Zm7.424-3.328.946-.325-.36-1.047-1.005.464.419.908Zm11.008 32 .518.855.69-.418-.262-.762-.946.325Zm-23.808 9.216.258.966-.258-.966Zm-35.584 3.096c-28.656 0-50.374-7.964-65.322-23.752l-1.452 1.376c15.431 16.298 37.745 24.376 66.774 24.376v-2Zm-65.318-23.747c-14.793-15.802-22.258-38.309-22.258-67.669h-2c0 29.69 7.553 52.751 22.798 69.035l1.46-1.366ZM718.3 160.168c0-14.573 2.288-27.499 6.84-38.794l-1.856-.748c-4.664 11.574-6.984 24.76-6.984 39.542h2Zm6.841-38.799c4.563-11.49 10.804-21.096 18.714-28.838l-1.398-1.43c-8.132 7.96-14.521 17.809-19.174 29.53l1.858.738Zm18.722-28.846c7.915-7.915 17.348-13.897 28.311-17.945l-.692-1.876c-11.223 4.144-20.905 10.28-29.033 18.407l1.414 1.414Zm28.311-17.945c10.973-4.051 22.886-6.082 35.75-6.082v-2c-13.077 0-25.228 2.065-36.442 6.206l.692 1.876Zm35.75-6.082c7.458 0 14.219.593 20.289 1.774l.382-1.964c-6.218-1.209-13.11-1.81-20.671-1.81v2Zm20.316 1.778c6.106 1.018 11.429 2.287 15.976 3.803l.632-1.898c-4.669-1.556-10.098-2.847-16.28-3.877l-.328 1.972Zm16.008 3.813c4.572 1.355 8.353 2.786 11.357 4.287l.894-1.788c-3.14-1.57-7.039-3.04-11.683-4.417l-.568 1.918Zm11.357 4.287c3.068 1.534 5.25 2.711 6.573 3.538l1.06-1.696c-1.408-.88-3.663-2.092-6.739-3.63l-.894 1.788Zm6.161 2.354-11.52 32.256 1.884.672L863.65 81.4l-1.884-.672Zm-10.109 31.709c-5.538-2.942-12.007-5.441-19.4-7.504l-.538 1.926c7.285 2.033 13.615 4.483 19 7.344l.938-1.766Zm-19.394-7.503c-7.276-2.078-15.563-3.11-24.851-3.11v2c9.144 0 17.241 1.016 24.301 3.034l.55-1.924Zm-24.851-3.11c-6.257 0-12.426 1.043-18.5 3.126l.648 1.892c5.872-2.013 11.821-3.018 17.852-3.018v-2Zm-18.509 3.129c-5.952 2.101-11.283 5.513-15.99 10.22l1.414 1.414c4.509-4.509 9.588-7.753 15.242-9.748l-.666-1.886Zm-15.99 10.22c-4.557 4.557-8.21 10.488-10.979 17.759l1.868.712c2.692-7.065 6.207-12.739 10.525-17.057l-1.414-1.414Zm-10.979 17.759c-2.786 7.313-4.162 16.145-4.162 26.468h2c0-10.157 1.355-18.733 4.03-25.756l-1.868-.712Zm-4.162 26.468c0 8.261.861 16.02 2.587 23.272l1.946-.464c-1.687-7.084-2.533-14.685-2.533-22.808h-2Zm2.594 23.299c1.907 7.109 4.862 13.289 8.876 18.525l1.588-1.216c-3.837-5.004-6.685-10.941-8.532-17.827l-1.932.518Zm8.889 18.542c4.2 5.249 9.615 9.436 16.225 12.567l.856-1.808c-6.361-3.013-11.527-7.018-15.519-12.009l-1.562 1.25Zm16.245 12.576c6.646 2.973 14.643 4.439 23.96 4.439v-2c-9.115 0-16.819-1.435-23.144-4.265l-.816 1.826Zm23.96 4.439c5.84 0 11.096-.343 15.763-1.035l-.294-1.978c-4.549.674-9.704 1.013-15.469 1.013v2Zm15.763-1.035c4.629-.686 8.754-1.459 12.373-2.32l-.464-1.946c-3.549.845-7.616 1.608-12.203 2.288l.294 1.978Zm12.416-2.331c3.617-1.034 6.818-2.157 9.598-3.374l-.802-1.832c-2.681 1.173-5.795 2.268-9.346 3.282l.55 1.924Zm9.598-3.374a416.698 416.698 0 0 0 7.442-3.336l-.838-1.816a410.883 410.883 0 0 1-7.406 3.32l.802 1.832Zm6.077-3.919 11.008 32 1.892-.65-11.008-32-1.892.65Zm11.436 30.82c-5.517 3.343-13.351 6.386-23.548 9.105l.516 1.932c10.283-2.742 18.321-5.844 24.068-9.327l-1.036-1.71Zm-23.548 9.105c-10.136 2.703-21.908 4.062-35.326 4.062v2c13.547 0 25.498-1.372 35.842-4.13l-.516-1.932Zm83.17-1.082.635.773.003-.003-.638-.77Zm-33.024 0-.651.759.015.013.015.011.621-.783Zm0-35.072.635.773.003-.003-.638-.77Zm33.024 0-.651.759.015.013.015.011.621-.783Zm6.424 17.408c0 7.446-2.387 13.025-7.062 16.894l1.276 1.54c5.224-4.323 7.786-10.52 7.786-18.434h-2Zm-7.059 16.891c-4.601 3.78-9.838 5.661-15.749 5.661v2c6.377 0 12.062-2.044 17.019-6.115l-1.27-1.546Zm-15.749 5.661c-5.912 0-11.241-1.882-16.019-5.671l-1.242 1.566c5.12 4.062 10.885 6.105 17.261 6.105v-2Zm-15.989-5.647c-4.509-3.865-6.819-9.447-6.819-16.905h-2c0 7.902 2.469 14.096 7.517 18.423l1.302-1.518Zm-6.819-16.905c0-7.46 2.31-12.945 6.803-16.635l-1.27-1.546c-5.065 4.161-7.533 10.281-7.533 18.181h2Zm6.806-16.638c4.778-3.955 10.102-5.914 16.002-5.914v-2c-6.388 0-12.158 2.137-17.278 6.374l1.276 1.54Zm16.002-5.914c5.899 0 11.131 1.958 15.733 5.903l1.302-1.518c-4.955-4.247-10.646-6.385-17.035-6.385v2Zm15.763 5.927c4.658 3.695 7.045 9.177 7.045 16.625h2c0-7.912-2.562-14.035-7.803-18.191l-1.242 1.566ZM1070.81 71.592h1v-1h-1v1Zm0 34.048v1h1v-1h-1Zm-53.5 0v-1h-1v1h1Zm0 143.36v1h1v-1h-1Zm-39.936 0h-1v1h1v-1Zm0-143.36h1v-1h-1v1Zm-53.504 0h-1v1h1v-1Zm0-34.048v-1h-1v1h1Zm145.94 0v34.048h2V71.592h-2Zm1 33.048h-53.5v2h53.5v-2Zm-54.5 1V249h2V105.64h-2Zm1 142.36h-39.936v2h39.936v-2Zm-38.936 1V105.64h-2V249h2Zm-1-144.36H923.87v2h53.504v-2Zm-52.504 1V71.592h-2v34.048h2Zm-1-33.048h146.94v-2H923.87v2Zm213.01 149.528.05.999-.05-.999Zm8.19-.768.16.986.84-.139v-.847h-1Zm0-28.928h1v-.802l-.78-.174-.22.976Zm-25.6-.768.11.994.02-.003.03-.003-.16-.988Zm-8.19 2.304.45.894-.45-.894Zm-1.79 25.088-.52.854.02.013.02.012.48-.879Zm59.64-93.44-.73.68.01.007v.007l.72-.694Zm9.73 17.408.97-.265-.97.265Zm2.82 102.144.21.977.79-.172v-.805h-1Zm-22.79 4.096-.15-.988-.01.002-.01.001.17.985Zm-59.13.256-.22.977.01.001.21-.978Zm-18.18-7.424-.57.819.01.007.01.006.55-.832Zm-11.77-13.824.9-.436-.9.436Zm.51-40.704-.86-.511-.01.011v.01l.87.49Zm12.8-13.056.52.853-.52-.853Zm18.17-6.912.2.981.01-.003.01-.002-.22-.976Zm34.31-1.536-.14.991.03.003.02.002.09-.996Zm9.47 1.536-.27.962 1.27.364v-1.326h-1Zm-45.57-23.552.14.991.01-.002.01-.002-.16-.987Zm-16.38 3.84-.99.156.19 1.206 1.15-.424-.35-.938Zm-4.87-30.72-.29-.956-.83.255.14.857.98-.156Zm8.2-2.048.2.979.02-.004.02-.005-.24-.97Zm11-2.048.13.992.02-.003.03-.004-.18-.985Zm12.29-1.536.08.997.02-.002.02-.002-.12-.993Zm16.39 111.848c3.77 0 7.37-.086 10.8-.257l-.1-1.998c-3.4.17-6.96.255-10.7.255v2Zm10.8-.257c3.43-.172 6.2-.43 8.3-.781l-.32-1.972c-2 .332-4.69.585-8.08.755l.1 1.998Zm9.14-1.767v-28.928h-2v28.928h2Zm-.78-29.904c-1.59-.354-3.94-.7-7.02-1.042l-.22 1.988c3.06.34 5.32.677 6.8 1.006l.44-1.952Zm-7.02-1.042c-3.1-.344-5.96-.518-8.56-.518v2c2.52 0 5.3.168 8.34.506l.22-1.988Zm-8.56-.518c-3.63 0-7.1.259-10.4.78l.32 1.976c3.18-.503 6.54-.756 10.08-.756v-2Zm-10.35.774c-3.17.352-6.02 1.149-8.53 2.404l.9 1.788c2.26-1.134 4.88-1.874 7.85-2.204l-.22-1.988Zm-8.53 2.404c-2.53 1.265-4.55 2.998-6.02 5.203l1.67 1.11c1.26-1.891 3-3.401 5.25-4.525l-.9-1.788Zm-6.02 5.203c-1.5 2.249-2.21 5.015-2.21 8.235h2c0-2.924.65-5.278 1.88-7.125l-1.67-1.11Zm-2.21 8.235c0 6.203 2.05 10.773 6.37 13.398l1.04-1.708c-3.54-2.154-5.41-5.947-5.41-11.69h-2Zm6.41 13.423c4.3 2.328 10.03 3.449 17.12 3.449v-2c-6.91 0-12.27-1.098-16.17-3.207l-.95 1.758Zm14.04-108.167c11.2 0 20.47 1.273 27.84 3.787l.65-1.894c-7.65-2.606-17.15-3.893-28.49-3.893v2Zm27.84 3.787c7.39 2.518 13.21 6.108 17.51 10.741l1.47-1.36c-4.58-4.924-10.7-8.673-18.33-11.275l-.65 1.894Zm17.52 10.755c4.49 4.65 7.65 10.303 9.49 16.979l1.93-.53c-1.92-6.977-5.24-12.93-9.98-17.837l-1.44 1.388Zm9.49 16.979c1.85 6.726 2.78 14.23 2.78 22.519h2c0-8.437-.95-16.122-2.85-23.049l-1.93.53Zm2.78 22.519v79.36h2V165.8h-2Zm.78 78.383c-5.43 1.189-13 2.55-22.72 4.085l.31 1.976c9.74-1.537 17.35-2.906 22.84-4.107l-.43-1.954Zm-22.74 4.088c-9.65 1.694-21.37 2.545-35.15 2.545v2c13.86 0 25.69-.855 35.5-2.575l-.35-1.97Zm-35.15 2.545c-8.65 0-16.51-.763-23.6-2.282l-.42 1.956c7.25 1.553 15.25 2.326 24.02 2.326v-2Zm-23.6-2.281c-6.89-1.513-12.83-3.945-17.83-7.279l-1.11 1.664c5.24 3.493 11.41 6.01 18.51 7.569l.43-1.954Zm-17.81-7.266c-4.98-3.486-8.8-7.962-11.45-13.441l-1.8.872c2.8 5.785 6.84 10.525 12.1 14.207l1.15-1.638Zm-11.45-13.441c-2.65-5.461-4-12.214-4-20.3h-2c0 8.298 1.38 15.369 4.2 21.172l1.8-.872Zm-4-20.3c0-7.722 1.51-14.199 4.48-19.478l-1.74-.98c-3.18 5.644-4.74 12.478-4.74 20.458h2Zm4.47-19.457c3.16-5.325 7.31-9.559 12.46-12.714l-1.04-1.706c-5.44 3.33-9.82 7.801-13.14 13.398l1.72 1.022Zm12.46-12.714c5.18-3.174 11.12-5.439 17.85-6.784l-.39-1.962c-6.93 1.386-13.1 3.729-18.5 7.04l1.04 1.706Zm17.87-6.789c6.75-1.519 13.76-2.28 21.03-2.28v-2c-7.41 0-14.56.775-21.47 2.328l.44 1.952Zm21.03-2.28c4.92 0 9.22.254 12.92.759l.27-1.982c-3.81-.519-8.21-.777-13.19-.777v2Zm12.97.764c3.9.339 6.98.844 9.29 1.502l.54-1.924c-2.47-.707-5.7-1.226-9.66-1.57l-.17 1.992Zm10.56.54v-3.584h-2v3.584h2Zm0-3.584c0-6.702-2.04-12.179-6.18-16.323l-1.42 1.414c3.71 3.706 5.6 8.641 5.6 14.909h2Zm-6.18-16.323c-4.21-4.212-11.38-6.181-21.19-6.181v2c9.65 0 16.14 1.956 19.77 5.595l1.42-1.414Zm-21.19-6.181c-6.54 0-12.99.516-19.36 1.549l.32 1.974a118.8 118.8 0 0 1 19.04-1.523v-2Zm-19.33 1.545c-6.37.86-11.91 2.155-16.6 3.893l.7 1.876c4.52-1.675 9.9-2.941 16.17-3.787l-.27-1.982Zm-15.26 4.675-4.87-30.72-1.97.312 4.86 30.72 1.98-.312Zm-5.56-29.608c2.18-.671 4.88-1.347 8.1-2.025l-.41-1.958c-3.26.687-6.02 1.377-8.28 2.071l.59 1.912Zm8.14-2.034c3.37-.843 7-1.519 10.89-2.026l-.26-1.984c-3.95.517-7.66 1.206-11.12 2.07l.49 1.94Zm10.94-2.033c3.89-.677 7.95-1.185 12.19-1.524l-.16-1.994c-4.29.344-8.42.859-12.38 1.548l.35 1.97Zm12.23-1.528c4.4-.507 8.8-.761 13.19-.761v-2c-4.47 0-8.95.258-13.42.775l.23 1.986Zm159.81 42.783-.83.545.83 1.29.84-1.29-.84-.545Zm26.63-40.96v-1h-.54l-.3.455.84.545Zm39.42 0 .82.58 1.12-1.58h-1.94v1Zm-46.08 64.768-.81-.58-.44.615.47.59.78-.625Zm27.91 37.376-.83.568.83-.568ZM1337.51 249v1h1.65l-.76-1.46-.89.46Zm-40.96 0-.88.471.28.529h.6v-1Zm-5.12-9.472-.88.463v.008l.01.008.87-.479Zm-6.91-12.032-.86.514.01.008v.008l.85-.53Zm-8.19-12.544-.84.539.01.02.01.019.82-.578Zm-8.19-11.52.78-.625-.79-.982-.78.987.79.62Zm-7.94 10.752-.82-.571-.01.012-.01.013.84.546Zm-7.42 12.032.85.52.01-.008v-.008l-.86-.504Zm-7.17 11.776-.85-.52-.01.014-.01.014.87.492ZM1239.72 249v1h.62l.28-.553-.9-.447Zm-38.91 0-.9-.433-.69 1.433h1.59v-1Zm8.45-15.104-.85-.525.85.525Zm11.52-17.92-.83-.56v.005l.83.555Zm13.31-18.688.8.6.01-.011-.81-.589Zm13.57-17.664.77.631.48-.592-.44-.62-.81.581Zm-23.04-32.512-.82.569v.006l.82-.575Zm-22.79-32.768v-1h-1.91l1.09 1.573.82-.573Zm41.22 0 .84-.545-.3-.455h-.54v1Zm27.46 41.505 26.63-40.96-1.68-1.09-26.62 40.96 1.67 1.09Zm25.79-40.505h39.42v-2h-39.42v2Zm38.61-1.58-46.08 64.768 1.63 1.16 46.08-64.768-1.63-1.16Zm-46.05 65.973c10.23 12.783 19.52 25.223 27.86 37.319l1.65-1.136c-8.38-12.139-17.69-24.616-27.95-37.433l-1.56 1.25Zm27.86 37.319c8.35 12.094 14.98 22.895 19.91 32.404l1.77-.92c-4.97-9.605-11.65-20.48-20.03-32.62l-1.65 1.136ZM1337.51 248h-40.96v2h40.96v-2Zm-40.07.529c-1.37-2.563-3.08-5.724-5.13-9.48l-1.75.958c2.04 3.753 3.75 6.907 5.11 9.464l1.77-.942Zm-5.12-9.464c-2.06-3.95-4.38-7.983-6.95-12.099l-1.7 1.06c2.55 4.076 4.84 8.064 6.88 11.965l1.77-.926Zm-6.94-12.083a199.305 199.305 0 0 0-8.23-12.608l-1.64 1.156c2.89 4.076 5.61 8.236 8.15 12.48l1.72-1.028Zm-8.21-12.569c-2.74-4.292-5.5-8.161-8.25-11.606l-1.56 1.25c2.7 3.382 5.41 7.192 8.13 11.434l1.68-1.078Zm-9.82-11.601a225.743 225.743 0 0 0-7.97 10.801l1.64 1.142c2.72-3.911 5.36-7.479 7.9-10.703l-1.57-1.24Zm-7.99 10.826a296.972 296.972 0 0 0-7.45 12.074l1.73 1.008c2.38-4.082 4.85-8.078 7.4-11.99l-1.68-1.092Zm-7.44 12.058c-2.39 3.925-4.77 7.851-7.16 11.776l1.7 1.04 7.17-11.776-1.71-1.04Zm-7.18 11.804c-2.23 3.937-4.2 7.622-5.91 11.053l1.79.894c1.69-3.396 3.65-7.05 5.86-10.963l-1.74-.984Zm-5.02 10.5h-38.91v2h38.91v-2Zm-38.01 1.433c2.03-4.225 4.83-9.227 8.4-15.012l-1.7-1.05c-3.6 5.82-6.43 10.887-8.5 15.196l1.8.866Zm8.4-15.012a618.874 618.874 0 0 1 11.5-17.89l-1.66-1.11a597.227 597.227 0 0 0-11.54 17.95l1.7 1.05Zm11.5-17.885a455.368 455.368 0 0 1 13.28-18.648l-1.6-1.2c-4.62 6.157-9.06 12.4-13.34 18.728l1.66 1.12Zm13.29-18.659c4.6-6.302 9.11-12.176 13.53-17.622l-1.55-1.262c-4.45 5.477-8.98 11.378-13.6 17.706l1.62 1.178Zm13.57-18.834a4970.15 4970.15 0 0 1-23.03-32.506l-1.64 1.15a5355.276 5355.276 0 0 0 23.04 32.518l1.63-1.162Zm-23.03-32.5a9635.793 9635.793 0 0 0-22.79-32.772l-1.64 1.146c7.51 10.75 15.11 21.672 22.79 32.764l1.64-1.138Zm-23.61-31.199h41.22v-2h-41.22v2Zm40.38-.455 26.63 40.96 1.67-1.09-26.62-40.96-1.68 1.09Z"/></g><defs><filter id="a" width="249.814" height="249.824" x="0" y="33" color-interpolation-filters="sRGB" filterUnits="userSpaceOnUse"><feFlood flood-opacity="0" result="BackgroundImageFix"/><feColorMatrix in="SourceAlpha" result="hardAlpha" values="0 0 0 0 0 0 0 0 0 0 0 0 0 0 0 0 0 0 127 0"/><feOffset dy="4"/><feGaussianBlur stdDeviation="2"/><feComposite in2="hardAlpha" operator="out"/><feColorMatrix values="0 0 0 0 0 0 0 0 0 0 0 0 0 0 0 0 0 0 0.25 0"/><feBlend in2="BackgroundImageFix" result="effect1_dropShadow_3_6"/><feBlend in="SourceGraphic" in2="effect1_dropShadow_3_6" result="shape"/></filter><filter id="b" width="1046.39" height="193.088" x="295.12" y="67.496" color-interpolation-filters="sRGB" filterUnits="userSpaceOnUse"><feFlood flood-opacity="0" result="BackgroundImageFix"/><feColorMatrix in="SourceAlpha" result="hardAlpha" values="0 0 0 0 0 0 0 0 0 0 0 0 0 0 0 0 0 0 127 0"/><feOffset dy="4"/><feGaussianBlur stdDeviation="2"/><feComposite in2="hardAlpha" operator="out"/><feColorMatrix values="0 0 0 0 0 0 0 0 0 0 0 0 0 0 0 0 0 0 0.25 0"/><feBlend in2="BackgroundImageFix" result="effect1_dropShadow_3_6"/><feBlend in="SourceGraphic" in2="effect1_dropShadow_3_6" result="shape"/></filter></defs></svg>