<svg xmlns="http://www.w3.org/2000/svg" width="48" height="48" fill="none" viewBox="0 0 48 48"><path fill="#9ADCCF" d="M17.883 22.673a4.52 4.52 0 0 1 4.514-4.514h3.984V9.394a.796.796 0 0 0-.797-.797H6.464a.796.796 0 0 0-.797.797v13.28c0 .44.356.796.797.796h3.45v1.505l3.014-1.505h4.955v-.797Z"/><path fill="#FFF370" d="M35.048 36.75H22.392a.796.796 0 0 1-.797-.797v-13.28c0-.44.357-.796.797-.796h19.12c.441 0 .797.356.797.796v13.28c0 .44-.356.797-.797.797h-3.45v1.505l-3.014-1.505Z"/><path fill="#4F3D3B" d="M16.022 24.534h-2.658a.797.797 0 0 0-.356.085L8.85 26.7v-1.369a.796.796 0 0 0-.797-.797H6.46a1.863 1.863 0 0 1-1.86-1.86V9.397c0-1.026.834-1.86 1.86-1.86h19.12c1.027 0 1.862.834 1.862 1.86v6.905a.796.796 0 1 0 1.594 0V9.398a3.453 3.453 0 0 0-3.45-3.45H6.464a3.453 3.453 0 0 0-3.45 3.45v13.28a3.453 3.453 0 0 0 3.45 3.45h.796v1.856a.792.792 0 0 0 .797.797.796.796 0 0 0 .356-.084l5.142-2.574h2.466a.795.795 0 1 0 0-1.589Z"/><path fill="#4F3D3B" d="M41.517 19.223h-3.084a.796.796 0 1 0 0 1.594h3.084c1.027 0 1.861.835 1.861 1.861v13.275a1.862 1.862 0 0 1-1.86 1.861h-1.595a.796.796 0 0 0-.796.797v1.369l-4.158-2.086a.796.796 0 0 0-.356-.085H22.397a1.863 1.863 0 0 1-1.861-1.86V22.672c0-1.026.834-1.86 1.861-1.86h11.686a.796.796 0 1 0 0-1.594H22.397c-.605 0-1.172.154-1.664.431l-3.985-8.47a.795.795 0 0 0-1.443 0l-4.247 9.028a.799.799 0 0 0 .38 1.06.799.799 0 0 0 1.059-.38l.91-1.932h5.235l.863 1.833a3.425 3.425 0 0 0-.563 1.884v13.28a3.453 3.453 0 0 0 3.45 3.45H34.42l5.143 2.574a.795.795 0 0 0 1.153-.713v-1.86h.797a3.453 3.453 0 0 0 3.45-3.45v-13.28a3.446 3.446 0 0 0-3.446-3.45Zm-27.365-1.86 1.87-3.97 1.87 3.97h-3.74Zm2.63 17.039c-.01-.029-.015-.052-.024-.08-.01-.028-.028-.052-.042-.08-.01-.019-.019-.037-.033-.056a.76.76 0 0 0-.22-.22c-.02-.014-.038-.02-.057-.029-.028-.014-.051-.032-.08-.042-.023-.01-.05-.014-.079-.023-.023-.01-.047-.014-.07-.019a.862.862 0 0 0-.155-.014h-4.725a1.863 1.863 0 0 1-1.861-1.86v-.802a.796.796 0 1 0-1.594 0v.792a3.453 3.453 0 0 0 3.45 3.45h2.803l-.759.769a.798.798 0 0 0 .563 1.359.8.8 0 0 0 .562-.234l2.123-2.124a.798.798 0 0 0 .099-.122c.014-.019.019-.037.033-.056l.042-.08a.387.387 0 0 0 .023-.08c.005-.023.014-.046.02-.07a.886.886 0 0 0 0-.314.152.152 0 0 0-.02-.065ZM31.194 10.42c.01.028.014.052.024.08.01.028.028.052.042.08.01.018.019.037.033.056a.756.756 0 0 0 .22.22c.019.014.038.019.056.028.029.014.052.033.08.043.024.009.052.014.08.023.023.01.047.014.07.019.052.01.103.014.155.014h4.725c1.026 0 1.86.834 1.86 1.86v3.45a.796.796 0 1 0 1.595 0v-3.45a3.453 3.453 0 0 0-3.45-3.45H33.88l.764-.763a.798.798 0 0 0 0-1.125.798.798 0 0 0-1.125 0l-2.123 2.123a.806.806 0 0 0-.098.122c-.014.019-.02.037-.033.056l-.042.08a.402.402 0 0 0-.024.08c-.005.023-.014.046-.019.07a.886.886 0 0 0 0 .314c0 .023.01.047.014.07Z"/><path fill="#4F3D3B" d="M31.955 35.156c.44 0 .797-.356.797-.797v-2.123h3.717c.44 0 .797-.356.797-.797v-4.252a.796.796 0 0 0-.797-.796h-3.717v-2.124a.796.796 0 1 0-1.594 0v2.124H27.44a.796.796 0 0 0-.797.797v4.246c0 .441.356.797.797.797h3.717v2.128c0 .441.356.797.797.797Zm.797-7.172h2.92v2.658h-2.92v-2.658Zm-4.515 2.658v-2.658h2.92v2.658h-2.92Z"/></svg>